<svg xmlns="http://www.w3.org/2000/svg" xmlns:xlink="http://www.w3.org/1999/xlink" xml:space="preserve" version="1.1" style="shape-rendering:geometricPrecision;text-rendering:geometricPrecision;image-rendering:optimizeQuality;" viewBox="0 0 452 518.75" x="0px" y="0px" fill-rule="evenodd" clip-rule="evenodd"><defs><style type="text/css">
   
    .fil0 {fill:black;fill-rule:nonzero}
   
  </style></defs><g><path class="fil0" d="M101 415c35,-86 16,-117 -3,-148 -22,-35 -43,-69 -6,-161 -22,5 -43,19 -60,43 -43,61 -43,161 0,222 20,27 44,42 69,44z"/><path class="fil0" d="M114 105c-38,89 -19,120 1,152 21,34 42,68 9,156 20,-5 40,-19 57,-42 43,-61 43,-161 0,-222 -19,-27 -43,-41 -67,-44z"/><path class="fil0" d="M431 387c-28,-66 -55,-72 -82,-78 -31,-8 -62,-15 -92,-85 -9,14 -13,33 -9,56 10,57 65,111 122,121 25,5 47,-1 61,-14z"/><path class="fil0" d="M269 211c28,70 55,76 83,83 30,7 60,14 90,80 9,-14 12,-32 9,-54 -10,-57 -65,-111 -122,-121 -25,-5 -45,0 -60,12z"/><path class="fil0" d="M222 168c25,-58 49,-64 74,-69 27,-7 54,-13 80,-75 9,12 12,29 9,49 -9,50 -58,99 -108,108 -23,4 -42,-1 -55,-13z"/><path class="fil0" d="M366 12c-25,62 -49,68 -74,73 -26,7 -53,13 -79,72 -8,-13 -11,-29 -8,-48 9,-50 57,-99 108,-108 22,-3 40,1 53,11z"/></g><text x="0" y="430" fill="#000000" font-size="5px" font-weight="bold" font-family="'Helvetica Neue', Helvetica, Arial-Unicode, Arial, Sans-serif">Created by Taqiyyah</text><text x="0" y="435" fill="#000000" font-size="5px" font-weight="bold" font-family="'Helvetica Neue', Helvetica, Arial-Unicode, Arial, Sans-serif">from the Noun Project</text></svg>